<svg xmlns="http://www.w3.org/2000/svg" width="1200" height="600" viewBox="0 0 1200 600">
  <defs>
    <linearGradient id="bg" x1="0%" y1="0%" x2="100%" y2="100%">
      <stop offset="0%" style="stop-color:#f8f7f5;stop-opacity:1"/>
      <stop offset="100%" style="stop-color:#f0eeea;stop-opacity:1"/>
    </linearGradient>
  </defs>
  <rect width="1200" height="600" fill="url(#bg)"/>

  <!-- Background: faded document editor UI -->
  <!-- Left panel — document nav -->
  <rect x="-10" y="-20" width="240" height="660" fill="#d32f2f" opacity="0.02"/>
  <rect x="20" y="30" width="80" height="10" rx="5" fill="#d32f2f" opacity="0.06"/>
  <rect x="20" y="60" width="200" height="8" rx="4" fill="#1a1a1a" opacity="0.04"/>
  <rect x="36" y="80" width="170" height="6" rx="3" fill="#1a1a1a" opacity="0.025"/>
  <rect x="36" y="95" width="150" height="6" rx="3" fill="#1a1a1a" opacity="0.025"/>
  <rect x="36" y="110" width="160" height="6" rx="3" fill="#1a1a1a" opacity="0.025"/>
  <rect x="20" y="135" width="200" height="8" rx="4" fill="#1a1a1a" opacity="0.04"/>
  <rect x="36" y="155" width="140" height="6" rx="3" fill="#1a1a1a" opacity="0.025"/>
  <rect x="36" y="170" width="170" height="6" rx="3" fill="#1a1a1a" opacity="0.025"/>
  <rect x="20" y="200" width="200" height="8" rx="4" fill="#1a1a1a" opacity="0.04"/>
  <rect x="36" y="220" width="150" height="6" rx="3" fill="#1a1a1a" opacity="0.025"/>
  <rect x="36" y="235" width="130" height="6" rx="3" fill="#1a1a1a" opacity="0.025"/>

  <!-- Main editor -->
  <rect x="250" y="-20" width="680" height="660" fill="#ffffff" opacity="0.4"/>
  <!-- Toolbar -->
  <rect x="270" y="10" width="640" height="36" rx="6" fill="#1a1a1a" opacity="0.02"/>
  <circle cx="290" cy="28" r="8" fill="#1a1a1a" opacity="0.04"/>
  <circle cx="314" cy="28" r="8" fill="#1a1a1a" opacity="0.04"/>
  <circle cx="338" cy="28" r="8" fill="#1a1a1a" opacity="0.04"/>
  <rect x="370" y="22" width="1" height="12" fill="#1a1a1a" opacity="0.06"/>
  <rect x="390" y="23" width="40" height="10" rx="3" fill="#1a1a1a" opacity="0.04"/>
  <rect x="440" y="23" width="40" height="10" rx="3" fill="#1a1a1a" opacity="0.04"/>

  <!-- Document text lines -->
  <rect x="300" y="70" width="200" height="12" rx="6" fill="#1a1a1a" opacity="0.06"/>
  <rect x="300" y="100" width="560" height="6" rx="3" fill="#1a1a1a" opacity="0.03"/>
  <rect x="300" y="115" width="500" height="6" rx="3" fill="#1a1a1a" opacity="0.03"/>
  <rect x="300" y="130" width="540" height="6" rx="3" fill="#1a1a1a" opacity="0.03"/>
  <rect x="300" y="145" width="400" height="6" rx="3" fill="#1a1a1a" opacity="0.03"/>

  <!-- Highlighted review section -->
  <rect x="285" y="170" width="610" height="70" rx="6" fill="#d32f2f" opacity="0.03" stroke="#d32f2f" stroke-opacity="0.06"/>
  <rect x="305" y="185" width="300" height="8" rx="4" fill="#1a1a1a" opacity="0.05"/>
  <rect x="305" y="200" width="550" height="6" rx="3" fill="#1a1a1a" opacity="0.03"/>
  <rect x="305" y="215" width="480" height="6" rx="3" fill="#1a1a1a" opacity="0.03"/>

  <!-- More text -->
  <rect x="300" y="260" width="560" height="6" rx="3" fill="#1a1a1a" opacity="0.03"/>
  <rect x="300" y="275" width="500" height="6" rx="3" fill="#1a1a1a" opacity="0.03"/>

  <!-- Data table (Schedule of Activities) -->
  <rect x="285" y="310" width="620" height="130" rx="6" fill="#1a1a1a" opacity="0.015" stroke="#1a1a1a" stroke-opacity="0.03"/>
  <rect x="285" y="335" width="620" height="1" fill="#1a1a1a" opacity="0.03"/>
  <rect x="285" y="360" width="620" height="1" fill="#1a1a1a" opacity="0.03"/>
  <rect x="285" y="385" width="620" height="1" fill="#1a1a1a" opacity="0.03"/>
  <rect x="285" y="410" width="620" height="1" fill="#1a1a1a" opacity="0.03"/>
  <rect x="300" y="318" width="50" height="6" rx="3" fill="#d32f2f" opacity="0.08"/>
  <rect x="420" y="318" width="50" height="6" rx="3" fill="#1a1a1a" opacity="0.04"/>
  <rect x="540" y="318" width="50" height="6" rx="3" fill="#1a1a1a" opacity="0.04"/>
  <rect x="660" y="318" width="50" height="6" rx="3" fill="#1a1a1a" opacity="0.04"/>
  <rect x="780" y="318" width="50" height="6" rx="3" fill="#1a1a1a" opacity="0.04"/>

  <!-- Right panel — comments -->
  <rect x="950" y="-20" width="270" height="660" fill="#1a1a1a" opacity="0.02"/>
  <rect x="970" y="30" width="100" height="10" rx="5" fill="#d32f2f" opacity="0.06"/>
  <!-- Comment bubble 1 -->
  <rect x="970" y="60" width="220" height="70" rx="8" fill="#1a1a1a" opacity="0.02"/>
  <circle cx="990" cy="80" r="10" fill="#d32f2f" opacity="0.06"/>
  <rect x="1008" y="76" width="80" height="6" rx="3" fill="#1a1a1a" opacity="0.05"/>
  <rect x="1008" y="88" width="150" height="5" rx="2.5" fill="#1a1a1a" opacity="0.03"/>
  <rect x="1008" y="100" width="120" height="5" rx="2.5" fill="#1a1a1a" opacity="0.03"/>
  <!-- Comment bubble 2 -->
  <rect x="970" y="145" width="220" height="70" rx="8" fill="#1a1a1a" opacity="0.02"/>
  <circle cx="990" cy="165" r="10" fill="#3b82f6" opacity="0.06"/>
  <rect x="1008" y="161" width="70" height="6" rx="3" fill="#1a1a1a" opacity="0.05"/>
  <rect x="1008" y="173" width="140" height="5" rx="2.5" fill="#1a1a1a" opacity="0.03"/>
  <rect x="1008" y="185" width="110" height="5" rx="2.5" fill="#1a1a1a" opacity="0.03"/>

  <!-- Central brand — Lilly script -->
  <text x="600" y="300" text-anchor="middle" font-family="Georgia, 'Times New Roman', serif" font-size="56" font-weight="400" font-style="italic" fill="#d32f2f" opacity="0.75" letter-spacing="2">Lilly</text>
  <text x="600" y="340" text-anchor="middle" font-family="Inter, system-ui, sans-serif" font-size="18" font-weight="500" fill="#1a1a1a" opacity="0.6" letter-spacing="0.5">Writer&apos;s Studio</text>
  <text x="600" y="375" text-anchor="middle" font-family="Inter, system-ui, sans-serif" font-size="14" fill="#d32f2f" opacity="0.4" letter-spacing="2">Clinical Trial Protocol Platform</text>
</svg>
