<svg xmlns="http://www.w3.org/2000/svg" width="1200" height="600" viewBox="0 0 1200 600">
  <defs>
    <linearGradient id="bg" x1="0%" y1="0%" x2="100%" y2="100%">
      <stop offset="0%" style="stop-color:#f8f7f5;stop-opacity:1"/>
      <stop offset="100%" style="stop-color:#f0eeea;stop-opacity:1"/>
    </linearGradient>
  </defs>
  <rect width="1200" height="600" fill="url(#bg)"/>

  <!-- Background: faded dashboard UI -->
  <!-- Left sidebar -->
  <rect x="-20" y="-30" width="220" height="680" fill="#1a2332" opacity="0.04"/>
  <rect x="10" y="20" width="160" height="10" rx="5" fill="#1a2332" opacity="0.06"/>
  <rect x="10" y="50" width="180" height="8" rx="4" fill="#1a2332" opacity="0.03"/>
  <rect x="10" y="70" width="150" height="8" rx="4" fill="#1a2332" opacity="0.03"/>
  <rect x="10" y="90" width="170" height="8" rx="4" fill="#1a2332" opacity="0.03"/>
  <rect x="10" y="120" width="140" height="8" rx="4" fill="#3b82f6" opacity="0.06"/>
  <rect x="10" y="140" width="160" height="8" rx="4" fill="#1a2332" opacity="0.03"/>
  <rect x="10" y="160" width="130" height="8" rx="4" fill="#1a2332" opacity="0.03"/>

  <!-- Top bar -->
  <rect x="220" y="-10" width="1000" height="50" fill="#1a2332" opacity="0.03"/>
  <rect x="240" y="10" width="120" height="10" rx="5" fill="#1a2332" opacity="0.04"/>
  <rect x="900" y="10" width="80" height="10" rx="5" fill="#1a2332" opacity="0.04"/>
  <rect x="1000" y="10" width="60" height="10" rx="5" fill="#1a2332" opacity="0.04"/>

  <!-- Data cards -->
  <rect x="240" y="60" width="200" height="100" rx="8" fill="#1a2332" opacity="0.03" stroke="#1a2332" stroke-opacity="0.04"/>
  <rect x="260" y="80" width="60" height="8" rx="4" fill="#1a2332" opacity="0.05"/>
  <rect x="260" y="100" width="100" height="20" rx="4" fill="#1a2332" opacity="0.04"/>
  <rect x="260" y="130" width="80" height="6" rx="3" fill="#22c55e" opacity="0.08"/>

  <rect x="460" y="60" width="200" height="100" rx="8" fill="#1a2332" opacity="0.03" stroke="#1a2332" stroke-opacity="0.04"/>
  <rect x="480" y="80" width="60" height="8" rx="4" fill="#1a2332" opacity="0.05"/>
  <rect x="480" y="100" width="100" height="20" rx="4" fill="#1a2332" opacity="0.04"/>
  <rect x="480" y="130" width="80" height="6" rx="3" fill="#3b82f6" opacity="0.08"/>

  <rect x="680" y="60" width="200" height="100" rx="8" fill="#1a2332" opacity="0.03" stroke="#1a2332" stroke-opacity="0.04"/>
  <rect x="700" y="80" width="60" height="8" rx="4" fill="#1a2332" opacity="0.05"/>
  <rect x="700" y="100" width="100" height="20" rx="4" fill="#1a2332" opacity="0.04"/>

  <!-- Chart area -->
  <rect x="240" y="180" width="460" height="200" rx="8" fill="#1a2332" opacity="0.02" stroke="#1a2332" stroke-opacity="0.04"/>
  <polyline points="270,340 320,310 370,320 420,290 470,280 520,300 570,260 620,270 670,240" fill="none" stroke="#3b82f6" stroke-width="2" opacity="0.1"/>
  <polyline points="270,350 320,330 370,340 420,310 470,300 520,320 570,290 620,300 670,270" fill="none" stroke="#22c55e" stroke-width="1.5" opacity="0.08"/>

  <!-- Table rows -->
  <rect x="240" y="400" width="660" height="30" rx="4" fill="#1a2332" opacity="0.02"/>
  <rect x="240" y="435" width="660" height="30" rx="4" fill="#1a2332" opacity="0.015"/>
  <rect x="240" y="470" width="660" height="30" rx="4" fill="#1a2332" opacity="0.02"/>
  <rect x="240" y="505" width="660" height="30" rx="4" fill="#1a2332" opacity="0.015"/>
  <rect x="260" y="408" width="80" height="6" rx="3" fill="#1a2332" opacity="0.04"/>
  <rect x="400" y="408" width="60" height="6" rx="3" fill="#1a2332" opacity="0.03"/>
  <rect x="520" y="408" width="50" height="6" rx="3" fill="#1a2332" opacity="0.03"/>

  <!-- Right panel -->
  <rect x="920" y="60" width="260" height="500" rx="8" fill="#1a2332" opacity="0.02" stroke="#1a2332" stroke-opacity="0.03"/>
  <rect x="940" y="80" width="100" height="8" rx="4" fill="#1a2332" opacity="0.04"/>
  <rect x="940" y="110" width="220" height="60" rx="6" fill="#1a2332" opacity="0.02"/>
  <rect x="940" y="190" width="220" height="60" rx="6" fill="#1a2332" opacity="0.02"/>

  <!-- Central brand -->
  <!-- Apex geometric "A" mark -->
  <g transform="translate(600, 250)">
    <polygon points="0,-55 -40,35 -14,35 0,-12 14,35 40,35" fill="#1a2332" opacity="0.8"/>
    <rect x="-24" y="8" width="48" height="7" rx="2" fill="#3b82f6" opacity="0.65"/>
  </g>
  <text x="600" y="330" text-anchor="middle" font-family="Inter, system-ui, sans-serif" font-size="34" font-weight="600" fill="#1a2332" opacity="0.82" letter-spacing="0.5">Apex Fintech Solutions</text>
  <text x="600" y="365" text-anchor="middle" font-family="Inter, system-ui, sans-serif" font-size="15" fill="#3b82f6" opacity="0.55" letter-spacing="2">Billing · Trading · Account Onboarding</text>
</svg>
